<?xml version="1.0" encoding="UTF-8" standalone="no"?>
<!DOCTYPE svg PUBLIC "-//W3C//DTD SVG 1.1//EN"
 "http://www.w3.org/Graphics/SVG/1.1/DTD/svg11.dtd">
<!-- Generated by graphviz version 12.2.1 (20241206.2353)
 -->
<!-- Title: G Pages: 1 -->
<svg width="990pt" height="193pt"
 viewBox="0.00 0.00 1296.00 252.86" xmlns="http://www.w3.org/2000/svg" xmlns:xlink="http://www.w3.org/1999/xlink">
<g id="graph0" class="graph" transform="scale(0.229815 0.229815) rotate(0) translate(4 836.5)">
<title>G</title>
<polygon fill="white" stroke="none" points="-4,4 -4,-836.5 4303.81,-836.5 4303.81,4 -4,4"/>
<!-- Suspected Meningioma -->
<g id="node1" class="node">
<title>Suspected Meningioma</title>
<polygon fill="none" stroke="black" points="2752.5,-832.5 2607.5,-832.5 2607.5,-796.5 2752.5,-796.5 2752.5,-832.5"/>
<text text-anchor="middle" x="2680" y="-809.45" font-family="Times,serif" font-size="14.00">Suspected Meningioma</text>
</g>
<!-- Progressive headaches, weakness, visual symptoms -->
<g id="node2" class="node">
<title>Progressive headaches, weakness, visual symptoms</title>
<polygon fill="none" stroke="black" points="2829,-744 2531,-744 2531,-708 2829,-708 2829,-744"/>
<text text-anchor="middle" x="2680" y="-720.95" font-family="Times,serif" font-size="14.00">Progressive headaches, weakness, visual symptoms</text>
</g>
<!-- Suspected Meningioma&#45;&gt;Progressive headaches, weakness, visual symptoms -->
<g id="edge1" class="edge">
<title>Suspected Meningioma&#45;&gt;Progressive headaches, weakness, visual symptoms</title>
<path fill="none" stroke="black" d="M2680,-796.41C2680,-784.76 2680,-769.05 2680,-755.52"/>
<polygon fill="black" stroke="black" points="2683.5,-755.86 2680,-745.86 2676.5,-755.86 2683.5,-755.86"/>
<text text-anchor="middle" x="2843.5" y="-765.2" font-family="Times,serif" font-size="14.00">Progressive headaches, weakness, visual symptoms (100%)</text>
</g>
<!-- Dural&#45;based mass identified -->
<g id="node3" class="node">
<title>Dural&#45;based mass identified</title>
<polygon fill="none" stroke="black" points="2764.5,-655.5 2595.5,-655.5 2595.5,-619.5 2764.5,-619.5 2764.5,-655.5"/>
<text text-anchor="middle" x="2680" y="-632.45" font-family="Times,serif" font-size="14.00">Dural&#45;based mass identified</text>
</g>
<!-- Progressive headaches, weakness, visual symptoms&#45;&gt;Dural&#45;based mass identified -->
<g id="edge2" class="edge">
<title>Progressive headaches, weakness, visual symptoms&#45;&gt;Dural&#45;based mass identified</title>
<path fill="none" stroke="black" d="M2680,-707.91C2680,-696.26 2680,-680.55 2680,-667.02"/>
<polygon fill="black" stroke="black" points="2683.5,-667.36 2680,-657.36 2676.5,-667.36 2683.5,-667.36"/>
<text text-anchor="middle" x="2779" y="-676.7" font-family="Times,serif" font-size="14.00">Dural&#45;based mass identified (100%)</text>
</g>
<!-- KPS&gt;60, consider further treatment -->
<g id="node4" class="node">
<title>KPS&gt;60, consider further treatment</title>
<polygon fill="none" stroke="black" points="2785.88,-567 2574.12,-567 2574.12,-531 2785.88,-531 2785.88,-567"/>
<text text-anchor="middle" x="2680" y="-543.95" font-family="Times,serif" font-size="14.00">KPS&gt;60, consider further treatment</text>
</g>
<!-- Dural&#45;based mass identified&#45;&gt;KPS&gt;60, consider further treatment -->
<g id="edge3" class="edge">
<title>Dural&#45;based mass identified&#45;&gt;KPS&gt;60, consider further treatment</title>
<path fill="none" stroke="black" d="M2680,-619.41C2680,-607.76 2680,-592.05 2680,-578.52"/>
<polygon fill="black" stroke="black" points="2683.5,-578.86 2680,-568.86 2676.5,-578.86 2683.5,-578.86"/>
<text text-anchor="middle" x="2830.75" y="-588.2" font-family="Times,serif" font-size="14.00">Evaluate tumor size, location, symptoms, KPS (100%)</text>
</g>
<!-- Stable, improved symptoms -->
<g id="node5" class="node">
<title>Stable, improved symptoms</title>
<polygon fill="none" stroke="black" points="2050.25,-478.5 1879.75,-478.5 1879.75,-442.5 2050.25,-442.5 2050.25,-478.5"/>
<text text-anchor="middle" x="1965" y="-455.45" font-family="Times,serif" font-size="14.00">Stable, improved symptoms</text>
</g>
<!-- KPS&gt;60, consider further treatment&#45;&gt;Stable, improved symptoms -->
<g id="edge4" class="edge">
<title>KPS&gt;60, consider further treatment&#45;&gt;Stable, improved symptoms</title>
<path fill="none" stroke="black" d="M2573.74,-544.38C2437.66,-539.2 2209.51,-528.55 2126.75,-513 2090.48,-506.19 2050.98,-493.71 2020.1,-482.75"/>
<polygon fill="black" stroke="black" points="2021.58,-479.56 2010.98,-479.46 2019.2,-486.15 2021.58,-479.56"/>
<text text-anchor="middle" x="2249.38" y="-499.7" font-family="Times,serif" font-size="14.00">Asymptomatic, &lt;3cm, stable, KPS&gt;70 (4%)</text>
</g>
<!-- Symptomatic, ≥3cm, accessible, KPS&gt;60 -->
<g id="node6" class="node">
<title>Symptomatic, ≥3cm, accessible, KPS&gt;60</title>
<polygon fill="none" stroke="black" points="3507.38,-478.5 3262.62,-478.5 3262.62,-442.5 3507.38,-442.5 3507.38,-478.5"/>
<text text-anchor="middle" x="3385" y="-455.45" font-family="Times,serif" font-size="14.00">Symptomatic, ≥3cm, accessible, KPS&gt;60</text>
</g>
<!-- KPS&gt;60, consider further treatment&#45;&gt;Symptomatic, ≥3cm, accessible, KPS&gt;60 -->
<g id="edge5" class="edge">
<title>KPS&gt;60, consider further treatment&#45;&gt;Symptomatic, ≥3cm, accessible, KPS&gt;60</title>
<path fill="none" stroke="black" d="M2786.25,-544.6C2922.33,-539.67 3150.42,-529.31 3233,-513 3266.93,-506.3 3303.7,-493.99 3332.57,-483.08"/>
<polygon fill="black" stroke="black" points="3333.74,-486.38 3341.82,-479.53 3331.23,-479.85 3333.74,-486.38"/>
<text text-anchor="middle" x="3426.05" y="-499.7" font-family="Times,serif" font-size="14.00">Symptomatic, ≥3cm, accessible, KPS&gt;60 (76%)</text>
</g>
<!-- Grade II/III or residual tumor -->
<g id="node7" class="node">
<title>Grade II/III or residual tumor</title>
<polygon fill="none" stroke="black" points="340.62,-36 163.38,-36 163.38,0 340.62,0 340.62,-36"/>
<text text-anchor="middle" x="252" y="-12.95" font-family="Times,serif" font-size="14.00">Grade II/III or residual tumor</text>
</g>
<!-- KPS&gt;60, consider further treatment&#45;&gt;Grade II/III or residual tumor -->
<g id="edge6" class="edge">
<title>KPS&gt;60, consider further treatment&#45;&gt;Grade II/III or residual tumor</title>
<path fill="none" stroke="black" d="M2573.7,-547.4C2075.99,-544.22 0,-527.05 0,-461.5 0,-461.5 0,-461.5 0,-105.5 0,-71.8 81.63,-48.44 151.98,-34.57"/>
<polygon fill="black" stroke="black" points="152.51,-38.03 161.67,-32.71 151.19,-31.16 152.51,-38.03"/>
<text text-anchor="middle" x="111.75" y="-278.45" font-family="Times,serif" font-size="14.00">Inoperable, deep location, KPS&gt;60 (9%)</text>
</g>
<!-- Small volume recurrence (&lt;2cm), prior radiation -->
<g id="node8" class="node">
<title>Small volume recurrence (&lt;2cm), prior radiation</title>
<polygon fill="none" stroke="black" points="2737.25,-213 2452.75,-213 2452.75,-177 2737.25,-177 2737.25,-213"/>
<text text-anchor="middle" x="2595" y="-189.95" font-family="Times,serif" font-size="14.00">Small volume recurrence (&lt;2cm), prior radiation</text>
</g>
<!-- KPS&gt;60, consider further treatment&#45;&gt;Small volume recurrence (&lt;2cm), prior radiation -->
<g id="edge7" class="edge">
<title>KPS&gt;60, consider further treatment&#45;&gt;Small volume recurrence (&lt;2cm), prior radiation</title>
<path fill="none" stroke="black" d="M2710.73,-530.72C2769.07,-498.03 2894.03,-428.58 2939,-408 2984.71,-387.09 3333.45,-288.87 3362,-247.5 3366.17,-241.46 3367.1,-236.26 3362,-231 3339.48,-207.78 2812.29,-214.98 2780,-213 2769.89,-212.38 2759.48,-211.66 2749,-210.86"/>
<polygon fill="black" stroke="black" points="2749.35,-207.38 2739.11,-210.1 2748.8,-214.36 2749.35,-207.38"/>
<text text-anchor="middle" x="3232.17" y="-366.95" font-family="Times,serif" font-size="14.00">1&#45;3cm, mild symptoms, patient preference (8%)</text>
</g>
<!-- Stable, improved symptoms&#45;&gt;KPS&gt;60, consider further treatment -->
<g id="edge9" class="edge">
<title>Stable, improved symptoms&#45;&gt;KPS&gt;60, consider further treatment</title>
<path fill="none" stroke="black" d="M2050.72,-465.76C2133.34,-470.6 2261.7,-480.04 2372,-496.5 2406.72,-501.68 2414.71,-506.7 2449.25,-513 2486.01,-519.71 2526.22,-526.12 2562.64,-531.59"/>
<polygon fill="black" stroke="black" points="2561.9,-535.02 2572.31,-533.03 2562.93,-528.09 2561.9,-535.02"/>
<text text-anchor="middle" x="2562.12" y="-499.7" font-family="Times,serif" font-size="14.00">Growth &gt;1.5mm/year or new symptoms </text>
</g>
<!-- Monitor response, continue if beneficial -->
<g id="node9" class="node">
<title>Monitor response, continue if beneficial</title>
<polygon fill="none" stroke="black" points="1791.5,-390 1556.5,-390 1556.5,-354 1791.5,-354 1791.5,-390"/>
<text text-anchor="middle" x="1674" y="-366.95" font-family="Times,serif" font-size="14.00">Monitor response, continue if beneficial</text>
</g>
<!-- Stable, improved symptoms&#45;&gt;Monitor response, continue if beneficial -->
<g id="edge8" class="edge">
<title>Stable, improved symptoms&#45;&gt;Monitor response, continue if beneficial</title>
<path fill="none" stroke="black" d="M1879.27,-447.53C1848.56,-442.06 1813.95,-434.52 1783.25,-424.5 1759.99,-416.91 1735.24,-405.54 1715.19,-395.42"/>
<polygon fill="black" stroke="black" points="1717.01,-392.42 1706.52,-390.95 1713.81,-398.64 1717.01,-392.42"/>
<text text-anchor="middle" x="1858.62" y="-411.2" font-family="Times,serif" font-size="14.00">3&#45;6 month imaging (100%)</text>
</g>
<!-- Symptomatic, ≥3cm, accessible, KPS&gt;60&#45;&gt;Monitor response, continue if beneficial -->
<g id="edge10" class="edge">
<title>Symptomatic, ≥3cm, accessible, KPS&gt;60&#45;&gt;Monitor response, continue if beneficial</title>
<path fill="none" stroke="black" d="M3262.53,-456.49C3178.44,-452.66 3064.64,-444.01 2966,-424.5 2942.21,-419.79 2937.91,-412.05 2914,-408 2806.92,-389.87 2098.69,-378.58 1803.16,-374.61"/>
<polygon fill="black" stroke="black" points="1803.53,-371.11 1793.48,-374.48 1803.44,-378.11 1803.53,-371.11"/>
<text text-anchor="middle" x="3081.5" y="-411.2" font-family="Times,serif" font-size="14.00">Complete resection (Simpson I&#45;III) (31%)</text>
</g>
<!-- Guide treatment intensity -->
<g id="node10" class="node">
<title>Guide treatment intensity</title>
<polygon fill="none" stroke="black" points="3362.38,-124.5 3207.62,-124.5 3207.62,-88.5 3362.38,-88.5 3362.38,-124.5"/>
<text text-anchor="middle" x="3285" y="-101.45" font-family="Times,serif" font-size="14.00">Guide treatment intensity</text>
</g>
<!-- Symptomatic, ≥3cm, accessible, KPS&gt;60&#45;&gt;Guide treatment intensity -->
<g id="edge11" class="edge">
<title>Symptomatic, ≥3cm, accessible, KPS&gt;60&#45;&gt;Guide treatment intensity</title>
<path fill="none" stroke="black" d="M3387.92,-442.23C3393.79,-403.23 3404.32,-305.89 3378,-231 3364.44,-192.44 3334.1,-156.05 3311.75,-132.89"/>
<polygon fill="black" stroke="black" points="3314.5,-130.7 3304.98,-126.06 3309.53,-135.63 3314.5,-130.7"/>
<text text-anchor="middle" x="3507.08" y="-278.45" font-family="Times,serif" font-size="14.00">Incomplete resection or high grade (19%)</text>
</g>
<!-- Assess WHO grade, proliferation index, molecular markers -->
<g id="node11" class="node">
<title>Assess WHO grade, proliferation index, molecular markers</title>
<polygon fill="none" stroke="black" points="3988.38,-301.5 3647.62,-301.5 3647.62,-265.5 3988.38,-265.5 3988.38,-301.5"/>
<text text-anchor="middle" x="3818" y="-278.45" font-family="Times,serif" font-size="14.00">Assess WHO grade, proliferation index, molecular markers</text>
</g>
<!-- Symptomatic, ≥3cm, accessible, KPS&gt;60&#45;&gt;Assess WHO grade, proliferation index, molecular markers -->
<g id="edge12" class="edge">
<title>Symptomatic, ≥3cm, accessible, KPS&gt;60&#45;&gt;Assess WHO grade, proliferation index, molecular markers</title>
<path fill="none" stroke="black" d="M3428.1,-442.08C3507.67,-409.92 3677.43,-341.31 3764.32,-306.19"/>
<polygon fill="black" stroke="black" points="3765.39,-309.54 3773.35,-302.55 3762.77,-303.05 3765.39,-309.54"/>
<text text-anchor="middle" x="3826.04" y="-366.95" font-family="Times,serif" font-size="14.00">Assess WHO grade, proliferation index, molecular markers (49%)</text>
</g>
<!-- Grade II/III or residual tumor&#45;&gt;Monitor response, continue if beneficial -->
<g id="edge13" class="edge">
<title>Grade II/III or residual tumor&#45;&gt;Monitor response, continue if beneficial</title>
<path fill="none" stroke="black" d="M252,-36.23C252,-53.69 252,-81.47 252,-105.5 252,-284.5 252,-284.5 252,-284.5 252,-343.36 316.48,-323.55 374,-336 486.09,-360.26 1239.12,-368.06 1545.11,-370.24"/>
<polygon fill="black" stroke="black" points="1544.71,-373.74 1554.73,-370.31 1544.76,-366.74 1544.71,-373.74"/>
<text text-anchor="middle" x="364.5" y="-189.95" font-family="Times,serif" font-size="14.00">Monitor response, 3&#45;month MRI (100%)</text>
</g>
<!-- Small volume recurrence (&lt;2cm), prior radiation&#45;&gt;Monitor response, continue if beneficial -->
<g id="edge14" class="edge">
<title>Small volume recurrence (&lt;2cm), prior radiation&#45;&gt;Monitor response, continue if beneficial</title>
<path fill="none" stroke="black" d="M2584.39,-213.39C2576.1,-225.27 2563.4,-240.15 2548,-247.5 2487.48,-276.39 2307.87,-237.89 2246.75,-265.5 2226.2,-274.78 2231.46,-292.02 2211,-301.5 2118.36,-344.4 2079.37,-288.8 1982,-319.5 1968.22,-323.84 1967.67,-331.34 1954,-336 1906.14,-352.31 1851.36,-361.16 1803.02,-365.91"/>
<polygon fill="black" stroke="black" points="1802.98,-362.4 1793.35,-366.81 1803.63,-369.37 1802.98,-362.4"/>
<text text-anchor="middle" x="2363.38" y="-278.45" font-family="Times,serif" font-size="14.00">3&#45;6 month post&#45;treatment imaging (100%)</text>
</g>
<!-- Monitor response, continue if beneficial&#45;&gt;Stable, improved symptoms -->
<g id="edge19" class="edge">
<title>Monitor response, continue if beneficial&#45;&gt;Stable, improved symptoms</title>
<path fill="none" stroke="black" d="M1791.96,-379.01C1849.16,-383.87 1910.5,-392.55 1934,-408 1942.71,-413.73 1949.35,-422.83 1954.2,-431.79"/>
<polygon fill="black" stroke="black" points="1950.97,-433.17 1958.44,-440.69 1957.29,-430.15 1950.97,-433.17"/>
<text text-anchor="middle" x="2042.65" y="-411.2" font-family="Times,serif" font-size="14.00">Stable, improved symptoms (9%)</text>
</g>
<!-- Growth &gt;1.5mm/year, new enhancement, or symptom progression -->
<g id="node13" class="node">
<title>Growth &gt;1.5mm/year, new enhancement, or symptom progression</title>
<polygon fill="none" stroke="black" points="2871,-301.5 2489,-301.5 2489,-265.5 2871,-265.5 2871,-301.5"/>
<text text-anchor="middle" x="2680" y="-278.45" font-family="Times,serif" font-size="14.00">Growth &gt;1.5mm/year, new enhancement, or symptom progression</text>
</g>
<!-- Monitor response, continue if beneficial&#45;&gt;Growth &gt;1.5mm/year, new enhancement, or symptom progression -->
<g id="edge18" class="edge">
<title>Monitor response, continue if beneficial&#45;&gt;Growth &gt;1.5mm/year, new enhancement, or symptom progression</title>
<path fill="none" stroke="black" d="M1791.92,-363.64C1862.79,-358.03 1945.53,-349.01 1979,-336 1990.64,-331.47 1989.94,-323.58 2001.75,-319.5 2051.48,-302.31 2422.47,-304.68 2475,-301.5 2475.7,-301.46 2476.39,-301.42 2477.09,-301.37"/>
<polygon fill="black" stroke="black" points="2477.24,-304.87 2487,-300.75 2476.8,-297.88 2477.24,-304.87"/>
<text text-anchor="middle" x="2203.88" y="-322.7" font-family="Times,serif" font-size="14.00">Growth &gt;1.5mm/year, new enhancement, or symptom progression (81%)</text>
</g>
<!-- Poor outcome, consider end&#45;of&#45;life care -->
<g id="node14" class="node">
<title>Poor outcome, consider end&#45;of&#45;life care</title>
<polygon fill="none" stroke="black" points="960.75,-213 727.25,-213 727.25,-177 960.75,-177 960.75,-213"/>
<text text-anchor="middle" x="844" y="-189.95" font-family="Times,serif" font-size="14.00">Poor outcome, consider end&#45;of&#45;life care</text>
</g>
<!-- Monitor response, continue if beneficial&#45;&gt;Poor outcome, consider end&#45;of&#45;life care -->
<g id="edge20" class="edge">
<title>Monitor response, continue if beneficial&#45;&gt;Poor outcome, consider end&#45;of&#45;life care</title>
<path fill="none" stroke="black" d="M1556,-369.52C1231.75,-364.84 348.4,-347.9 307.25,-301.5 296.63,-289.53 296.69,-277.52 307.25,-265.5 333.83,-235.24 565.58,-214.33 715.75,-203.83"/>
<polygon fill="black" stroke="black" points="715.62,-207.35 725.35,-203.17 715.14,-200.36 715.62,-207.35"/>
<text text-anchor="middle" x="406.62" y="-278.45" font-family="Times,serif" font-size="14.00">Multiple recurrences, KPS&lt;50 (8%)</text>
</g>
<!-- New enhancing nodule &lt;2cm within 3 years -->
<g id="node15" class="node">
<title>New enhancing nodule &lt;2cm within 3 years</title>
<polygon fill="none" stroke="black" points="3147.12,-301.5 2888.88,-301.5 2888.88,-265.5 3147.12,-265.5 3147.12,-301.5"/>
<text text-anchor="middle" x="3018" y="-278.45" font-family="Times,serif" font-size="14.00">New enhancing nodule &lt;2cm within 3 years</text>
</g>
<!-- Monitor response, continue if beneficial&#45;&gt;New enhancing nodule &lt;2cm within 3 years -->
<g id="edge21" class="edge">
<title>Monitor response, continue if beneficial&#45;&gt;New enhancing nodule &lt;2cm within 3 years</title>
<path fill="none" stroke="black" d="M1791.93,-367.34C2006.09,-360 2473.35,-340.82 2877.4,-301.73"/>
<polygon fill="black" stroke="black" points="2877.62,-305.22 2887.23,-300.77 2876.94,-298.25 2877.62,-305.22"/>
<text text-anchor="middle" x="2772.72" y="-322.7" font-family="Times,serif" font-size="14.00">New enhancing nodule &lt;2cm within 3 years </text>
</g>
<!-- New enhancement, edema post&#45;radiation -->
<g id="node16" class="node">
<title>New enhancement, edema post&#45;radiation</title>
<polygon fill="none" stroke="black" points="2201.75,-301.5 1962.25,-301.5 1962.25,-265.5 2201.75,-265.5 2201.75,-301.5"/>
<text text-anchor="middle" x="2082" y="-278.45" font-family="Times,serif" font-size="14.00">New enhancement, edema post&#45;radiation</text>
</g>
<!-- Monitor response, continue if beneficial&#45;&gt;New enhancement, edema post&#45;radiation -->
<g id="edge22" class="edge">
<title>Monitor response, continue if beneficial&#45;&gt;New enhancement, edema post&#45;radiation</title>
<path fill="none" stroke="black" d="M1686.43,-353.69C1695.99,-341.84 1710.33,-326.98 1726.75,-319.5 1771.64,-299.06 1898.94,-306.61 1948,-301.5 1948.85,-301.41 1949.71,-301.32 1950.57,-301.23"/>
<polygon fill="black" stroke="black" points="1950.79,-304.73 1960.35,-300.17 1950.04,-297.77 1950.79,-304.73"/>
<text text-anchor="middle" x="1840.38" y="-322.7" font-family="Times,serif" font-size="14.00">New enhancement, edema post&#45;radiation </text>
</g>
<!-- Evaluate functional status -->
<g id="node17" class="node">
<title>Evaluate functional status</title>
<polygon fill="none" stroke="black" points="671.12,-301.5 514.88,-301.5 514.88,-265.5 671.12,-265.5 671.12,-301.5"/>
<text text-anchor="middle" x="593" y="-278.45" font-family="Times,serif" font-size="14.00">Evaluate functional status</text>
</g>
<!-- Monitor response, continue if beneficial&#45;&gt;Evaluate functional status -->
<g id="edge23" class="edge">
<title>Monitor response, continue if beneficial&#45;&gt;Evaluate functional status</title>
<path fill="none" stroke="black" d="M1556.04,-370.76C1286.57,-369.73 646.12,-364.29 609,-336 601.8,-330.52 597.76,-321.83 595.51,-313.15"/>
<polygon fill="black" stroke="black" points="598.99,-312.7 593.76,-303.48 592.1,-313.95 598.99,-312.7"/>
<text text-anchor="middle" x="681" y="-322.7" font-family="Times,serif" font-size="14.00">Evaluate functional status </text>
</g>
<!-- Rapid neurological decline, significant mass effect -->
<g id="node18" class="node">
<title>Rapid neurological decline, significant mass effect</title>
<polygon fill="none" stroke="black" points="982.38,-301.5 689.62,-301.5 689.62,-265.5 982.38,-265.5 982.38,-301.5"/>
<text text-anchor="middle" x="836" y="-278.45" font-family="Times,serif" font-size="14.00">Rapid neurological decline, significant mass effect</text>
</g>
<!-- Monitor response, continue if beneficial&#45;&gt;Rapid neurological decline, significant mass effect -->
<g id="edge24" class="edge">
<title>Monitor response, continue if beneficial&#45;&gt;Rapid neurological decline, significant mass effect</title>
<path fill="none" stroke="black" d="M1556.17,-370.77C1315.68,-369.71 788.61,-364.16 761.5,-336 751.08,-325.17 758.82,-315.25 772.62,-307.07"/>
<polygon fill="black" stroke="black" points="773.84,-310.38 781.09,-302.65 770.6,-304.18 773.84,-310.38"/>
<text text-anchor="middle" x="901.75" y="-322.7" font-family="Times,serif" font-size="14.00">Rapid neurological decline, significant mass effect </text>
</g>
<!-- Guide treatment intensity&#45;&gt;Grade II/III or residual tumor -->
<g id="edge15" class="edge">
<title>Guide treatment intensity&#45;&gt;Grade II/III or residual tumor</title>
<path fill="none" stroke="black" d="M3207.36,-103.29C2790.74,-91.4 821.54,-35.24 352.47,-21.87"/>
<polygon fill="black" stroke="black" points="352.62,-18.37 342.52,-21.58 352.42,-25.37 352.62,-18.37"/>
<text text-anchor="middle" x="2139.91" y="-57.2" font-family="Times,serif" font-size="14.00">Grade II/III or residual tumor (24%)</text>
</g>
<!-- Guide treatment intensity&#45;&gt;Monitor response, continue if beneficial -->
<g id="edge16" class="edge">
<title>Guide treatment intensity&#45;&gt;Monitor response, continue if beneficial</title>
<path fill="none" stroke="black" d="M3272.88,-124.98C3256.4,-148.81 3226.11,-192.89 3201,-231 3180.54,-262.04 3187.33,-281.49 3156,-301.5 3059.24,-363.29 3014.43,-326.68 2900,-336 2501.04,-368.49 2026.94,-372.14 1803.16,-371.78"/>
<polygon fill="black" stroke="black" points="1803.24,-368.28 1793.23,-371.76 1803.23,-375.28 1803.24,-368.28"/>
<text text-anchor="middle" x="3294" y="-234.2" font-family="Times,serif" font-size="14.00">Complete adjuvant therapy (75%)</text>
</g>
<!-- WHO Grade II, post&#45;operative -->
<g id="node12" class="node">
<title>WHO Grade II, post&#45;operative</title>
<polygon fill="none" stroke="black" points="1919.62,-36 1736.38,-36 1736.38,0 1919.62,0 1919.62,-36"/>
<text text-anchor="middle" x="1828" y="-12.95" font-family="Times,serif" font-size="14.00">WHO Grade II, post&#45;operative</text>
</g>
<!-- Guide treatment intensity&#45;&gt;WHO Grade II, post&#45;operative -->
<g id="edge17" class="edge">
<title>Guide treatment intensity&#45;&gt;WHO Grade II, post&#45;operative</title>
<path fill="none" stroke="black" d="M3207.18,-100.88C2962.31,-86.34 2207.46,-41.53 1930.91,-25.11"/>
<polygon fill="black" stroke="black" points="1931.39,-21.63 1921.2,-24.53 1930.97,-28.62 1931.39,-21.63"/>
<text text-anchor="middle" x="2772.5" y="-57.2" font-family="Times,serif" font-size="14.00">WHO Grade II, post&#45;operative </text>
</g>
<!-- Assess WHO grade, proliferation index, molecular markers&#45;&gt;Guide treatment intensity -->
<g id="edge33" class="edge">
<title>Assess WHO grade, proliferation index, molecular markers&#45;&gt;Guide treatment intensity</title>
<path fill="none" stroke="black" d="M3969.19,-265.12C3985.26,-260.54 3997.97,-254.77 4004,-247.5 4008.68,-241.86 4007.42,-237.49 4004,-231 3971.21,-168.86 3939.64,-164.78 3873,-142.5 3783.05,-112.43 3514.79,-107.56 3373.81,-107.16"/>
<polygon fill="black" stroke="black" points="3374.16,-103.66 3364.15,-107.14 3374.14,-110.66 3374.16,-103.66"/>
<text text-anchor="middle" x="4146.44" y="-189.95" font-family="Times,serif" font-size="14.00">WHO Grade II/III, Ki&#45;67 &gt;4%, TERT mutation (100%)</text>
</g>
<!-- Increase in WHO grade from previous resection -->
<g id="node22" class="node">
<title>Increase in WHO grade from previous resection</title>
<polygon fill="none" stroke="black" points="3701.88,-213 3424.12,-213 3424.12,-177 3701.88,-177 3701.88,-213"/>
<text text-anchor="middle" x="3563" y="-189.95" font-family="Times,serif" font-size="14.00">Increase in WHO grade from previous resection</text>
</g>
<!-- Assess WHO grade, proliferation index, molecular markers&#45;&gt;Increase in WHO grade from previous resection -->
<g id="edge34" class="edge">
<title>Assess WHO grade, proliferation index, molecular markers&#45;&gt;Increase in WHO grade from previous resection</title>
<path fill="none" stroke="black" d="M3650.08,-265.01C3597.79,-258.75 3552.55,-252.11 3548.5,-247.5 3542.64,-240.83 3543.18,-231.95 3546.16,-223.45"/>
<polygon fill="black" stroke="black" points="3549.3,-225.01 3550.3,-214.46 3542.94,-222.08 3549.3,-225.01"/>
<text text-anchor="middle" x="3681.25" y="-234.2" font-family="Times,serif" font-size="14.00">Increase in WHO grade from previous resection </text>
</g>
<!-- Assess for TERT, NF2 mutations -->
<g id="node23" class="node">
<title>Assess for TERT, NF2 mutations</title>
<polygon fill="none" stroke="black" points="3916.38,-213 3719.62,-213 3719.62,-177 3916.38,-177 3916.38,-213"/>
<text text-anchor="middle" x="3818" y="-189.95" font-family="Times,serif" font-size="14.00">Assess for TERT, NF2 mutations</text>
</g>
<!-- Assess WHO grade, proliferation index, molecular markers&#45;&gt;Assess for TERT, NF2 mutations -->
<g id="edge35" class="edge">
<title>Assess WHO grade, proliferation index, molecular markers&#45;&gt;Assess for TERT, NF2 mutations</title>
<path fill="none" stroke="black" d="M3818,-265.41C3818,-253.76 3818,-238.05 3818,-224.52"/>
<polygon fill="black" stroke="black" points="3821.5,-224.86 3818,-214.86 3814.5,-224.86 3821.5,-224.86"/>
<text text-anchor="middle" x="3910.25" y="-234.2" font-family="Times,serif" font-size="14.00">Assess for TERT, NF2 mutations </text>
</g>
<!-- WHO Grade II, post&#45;operative&#45;&gt;Monitor response, continue if beneficial -->
<g id="edge38" class="edge">
<title>WHO Grade II, post&#45;operative&#45;&gt;Monitor response, continue if beneficial</title>
<path fill="none" stroke="black" d="M1735.94,-27.17C1601.95,-40.33 1369,-68.53 1369,-105.5 1369,-284.5 1369,-284.5 1369,-284.5 1369,-323.31 1461.55,-345.61 1544.68,-357.81"/>
<polygon fill="black" stroke="black" points="1544.19,-361.28 1554.58,-359.22 1545.17,-354.35 1544.19,-361.28"/>
<text text-anchor="middle" x="1490.12" y="-189.95" font-family="Times,serif" font-size="14.00">Monitor for radiation effects, tumor control </text>
</g>
<!-- Growth &gt;1.5mm/year, new enhancement, or symptom progression&#45;&gt;KPS&gt;60, consider further treatment -->
<g id="edge25" class="edge">
<title>Growth &gt;1.5mm/year, new enhancement, or symptom progression&#45;&gt;KPS&gt;60, consider further treatment</title>
<path fill="none" stroke="black" d="M2680,-301.85C2680,-346.31 2680,-464.64 2680,-519.43"/>
<polygon fill="black" stroke="black" points="2676.5,-519.2 2680,-529.2 2683.5,-519.2 2676.5,-519.2"/>
<text text-anchor="middle" x="2790.25" y="-411.2" font-family="Times,serif" font-size="14.00">Good functional status (KPS&gt;60) (36%)</text>
</g>
<!-- Growth &gt;1.5mm/year, new enhancement, or symptom progression&#45;&gt;Small volume recurrence (&lt;2cm), prior radiation -->
<g id="edge26" class="edge">
<title>Growth &gt;1.5mm/year, new enhancement, or symptom progression&#45;&gt;Small volume recurrence (&lt;2cm), prior radiation</title>
<path fill="none" stroke="black" d="M2615.64,-265.13C2608.04,-260.56 2601.23,-254.79 2596.25,-247.5 2591.71,-240.85 2590.2,-232.51 2590.17,-224.49"/>
<polygon fill="black" stroke="black" points="2593.64,-224.93 2590.87,-214.71 2586.66,-224.43 2593.64,-224.93"/>
<text text-anchor="middle" x="2749.62" y="-234.2" font-family="Times,serif" font-size="14.00">Small volume recurrence (&lt;2cm), prior radiation (17%)</text>
</g>
<!-- Growth &gt;1.5mm/year, new enhancement, or symptom progression&#45;&gt;Poor outcome, consider end&#45;of&#45;life care -->
<g id="edge28" class="edge">
<title>Growth &gt;1.5mm/year, new enhancement, or symptom progression&#45;&gt;Poor outcome, consider end&#45;of&#45;life care</title>
<path fill="none" stroke="black" d="M2488.52,-266.26C2483.97,-265.99 2479.46,-265.74 2475,-265.5 2388.65,-260.92 1781.26,-266.91 1697,-247.5 1679.85,-243.55 1678.11,-235.12 1661,-231 1628.23,-223.11 1194.3,-207.66 972.56,-200.21"/>
<polygon fill="black" stroke="black" points="972.81,-196.72 962.7,-199.88 972.58,-203.71 972.81,-196.72"/>
<text text-anchor="middle" x="1836.5" y="-234.2" font-family="Times,serif" font-size="14.00">Poor prognosis, patient preference, KPS&lt;40 (18%)</text>
</g>
<!-- Consider bevacizumab treatment -->
<g id="node19" class="node">
<title>Consider bevacizumab treatment</title>
<polygon fill="none" stroke="black" points="2083,-213 1887,-213 1887,-177 2083,-177 2083,-213"/>
<text text-anchor="middle" x="1985" y="-189.95" font-family="Times,serif" font-size="14.00">Consider bevacizumab treatment</text>
</g>
<!-- Growth &gt;1.5mm/year, new enhancement, or symptom progression&#45;&gt;Consider bevacizumab treatment -->
<g id="edge27" class="edge">
<title>Growth &gt;1.5mm/year, new enhancement, or symptom progression&#45;&gt;Consider bevacizumab treatment</title>
<path fill="none" stroke="black" d="M2488.51,-266.41C2385.59,-257.7 2278.49,-248.51 2272.75,-247.5 2244.77,-242.6 2238.8,-236.85 2211,-231 2173.32,-223.07 2131.76,-216.13 2094.67,-210.56"/>
<polygon fill="black" stroke="black" points="2095.21,-207.1 2084.81,-209.1 2094.19,-214.03 2095.21,-207.1"/>
<text text-anchor="middle" x="2429.88" y="-234.2" font-family="Times,serif" font-size="14.00">Multiple recurrences, not amenable to local therapy (9%)</text>
</g>
<!-- Symptomatic recurrence, operable -->
<g id="node20" class="node">
<title>Symptomatic recurrence, operable</title>
<polygon fill="none" stroke="black" points="2993.12,-213 2788.88,-213 2788.88,-177 2993.12,-177 2993.12,-213"/>
<text text-anchor="middle" x="2891" y="-189.95" font-family="Times,serif" font-size="14.00">Symptomatic recurrence, operable</text>
</g>
<!-- Growth &gt;1.5mm/year, new enhancement, or symptom progression&#45;&gt;Symptomatic recurrence, operable -->
<g id="edge29" class="edge">
<title>Growth &gt;1.5mm/year, new enhancement, or symptom progression&#45;&gt;Symptomatic recurrence, operable</title>
<path fill="none" stroke="black" d="M2869.85,-265.03C2884.98,-260.46 2896.82,-254.72 2903,-247.5 2908.64,-240.9 2908.48,-232.15 2906.03,-223.74"/>
<polygon fill="black" stroke="black" points="2909.3,-222.49 2902.35,-214.49 2902.79,-225.08 2909.3,-222.49"/>
<text text-anchor="middle" x="3020.9" y="-234.2" font-family="Times,serif" font-size="14.00">Symptomatic recurrence, operable (16%)</text>
</g>
<!-- Poor outcome, consider end&#45;of&#45;life care&#45;&gt;Monitor response, continue if beneficial -->
<g id="edge31" class="edge">
<title>Poor outcome, consider end&#45;of&#45;life care&#45;&gt;Monitor response, continue if beneficial</title>
<path fill="none" stroke="black" d="M959.06,-213.49C979,-218.31 995.93,-224.14 1004,-231 1029.7,-252.82 1005.3,-280.92 1032,-301.5 1071.67,-332.07 1368.79,-353.83 1544.6,-364.18"/>
<polygon fill="black" stroke="black" points="1544.3,-367.67 1554.49,-364.76 1544.71,-360.68 1544.3,-367.67"/>
<text text-anchor="middle" x="1174.5" y="-278.45" font-family="Times,serif" font-size="14.00">Symptom management, hospice consideration (4%)</text>
</g>
<!-- Progressive decline, KPS&lt;30 -->
<g id="node21" class="node">
<title>Progressive decline, KPS&lt;30</title>
<polygon fill="none" stroke="black" points="1069.88,-124.5 894.12,-124.5 894.12,-88.5 1069.88,-88.5 1069.88,-124.5"/>
<text text-anchor="middle" x="982" y="-101.45" font-family="Times,serif" font-size="14.00">Progressive decline, KPS&lt;30</text>
</g>
<!-- Poor outcome, consider end&#45;of&#45;life care&#45;&gt;Progressive decline, KPS&lt;30 -->
<g id="edge32" class="edge">
<title>Poor outcome, consider end&#45;of&#45;life care&#45;&gt;Progressive decline, KPS&lt;30</title>
<path fill="none" stroke="black" d="M862.99,-176.73C875.28,-166.08 891.93,-152.57 908,-142.5 915.12,-138.04 922.89,-133.77 930.64,-129.85"/>
<polygon fill="black" stroke="black" points="931.96,-133.11 939.4,-125.57 928.88,-126.82 931.96,-133.11"/>
<text text-anchor="middle" x="1007" y="-145.7" font-family="Times,serif" font-size="14.00">Progressive decline, KPS&lt;30 (96%)</text>
</g>
<!-- New enhancing nodule &lt;2cm within 3 years&#45;&gt;KPS&gt;60, consider further treatment -->
<g id="edge37" class="edge">
<title>New enhancing nodule &lt;2cm within 3 years&#45;&gt;KPS&gt;60, consider further treatment</title>
<path fill="none" stroke="black" d="M3117.98,-301.87C3147.5,-312.08 3176.76,-328.28 3195,-354 3218.93,-387.75 3205.2,-413.01 3197,-424.5 3151.13,-488.73 2935.71,-522.27 2797.81,-537.45"/>
<polygon fill="black" stroke="black" points="2797.45,-533.97 2787.88,-538.52 2798.2,-540.93 2797.45,-533.97"/>
<text text-anchor="middle" x="3289.18" y="-411.2" font-family="Times,serif" font-size="14.00">Consider re&#45;resection vs. SRS </text>
</g>
<!-- New enhancement, edema post&#45;radiation&#45;&gt;Consider bevacizumab treatment -->
<g id="edge39" class="edge">
<title>New enhancement, edema post&#45;radiation&#45;&gt;Consider bevacizumab treatment</title>
<path fill="none" stroke="black" d="M2005.57,-265C1997.96,-260.45 1991.16,-254.72 1986,-247.5 1981.32,-240.95 1979.81,-232.64 1979.81,-224.61"/>
<polygon fill="black" stroke="black" points="1983.29,-225.05 1980.6,-214.81 1976.31,-224.5 1983.29,-225.05"/>
<text text-anchor="middle" x="2098.5" y="-234.2" font-family="Times,serif" font-size="14.00">Consider bevacizumab treatment (100%)</text>
</g>
<!-- 6&#45;8 cycles for radiation necrosis -->
<g id="node24" class="node">
<title>6&#45;8 cycles for radiation necrosis</title>
<polygon fill="none" stroke="black" points="1820.38,-213 1629.62,-213 1629.62,-177 1820.38,-177 1820.38,-213"/>
<text text-anchor="middle" x="1725" y="-189.95" font-family="Times,serif" font-size="14.00">6&#45;8 cycles for radiation necrosis</text>
</g>
<!-- New enhancement, edema post&#45;radiation&#45;&gt;6&#45;8 cycles for radiation necrosis -->
<g id="edge40" class="edge">
<title>New enhancement, edema post&#45;radiation&#45;&gt;6&#45;8 cycles for radiation necrosis</title>
<path fill="none" stroke="black" d="M1961.88,-266.74C1957.2,-266.29 1952.56,-265.88 1948,-265.5 1922.21,-263.37 1500.44,-266.15 1482.5,-247.5 1477.42,-242.22 1477.68,-236.52 1482.5,-231 1502.05,-208.62 1585.59,-217.27 1615,-213 1616.02,-212.85 1617.06,-212.7 1618.09,-212.55"/>
<polygon fill="black" stroke="black" points="1618.44,-216.04 1627.83,-211.11 1617.42,-209.11 1618.44,-216.04"/>
<text text-anchor="middle" x="1571.75" y="-234.2" font-family="Times,serif" font-size="14.00">6&#45;8 cycles for radiation necrosis </text>
</g>
<!-- Evaluate functional status&#45;&gt;KPS&gt;60, consider further treatment -->
<g id="edge43" class="edge">
<title>Evaluate functional status&#45;&gt;KPS&gt;60, consider further treatment</title>
<path fill="none" stroke="black" d="M588.08,-301.89C586.07,-313.01 585.84,-326.98 594,-336 814.06,-579.42 1733.13,-484.07 2060,-513 2234.56,-528.45 2437.41,-538.39 2562.25,-543.59"/>
<polygon fill="black" stroke="black" points="2562.06,-547.08 2572.2,-544 2562.35,-540.09 2562.06,-547.08"/>
<text text-anchor="middle" x="831" y="-411.2" font-family="Times,serif" font-size="14.00">KPS&gt;60, consider further treatment </text>
</g>
<!-- Evaluate functional status&#45;&gt;Poor outcome, consider end&#45;of&#45;life care -->
<g id="edge44" class="edge">
<title>Evaluate functional status&#45;&gt;Poor outcome, consider end&#45;of&#45;life care</title>
<path fill="none" stroke="black" d="M581.78,-265.37C576.11,-254.37 572,-240.42 580.25,-231 598.59,-210.07 658.09,-201.09 715.94,-197.44"/>
<polygon fill="black" stroke="black" points="715.8,-200.96 725.58,-196.89 715.4,-193.97 715.8,-200.96"/>
<text text-anchor="middle" x="678.12" y="-234.2" font-family="Times,serif" font-size="14.00">KPS&lt;50, limited treatment options </text>
</g>
<!-- Rapid neurological decline, significant mass effect&#45;&gt;Poor outcome, consider end&#45;of&#45;life care -->
<g id="edge47" class="edge">
<title>Rapid neurological decline, significant mass effect&#45;&gt;Poor outcome, consider end&#45;of&#45;life care</title>
<path fill="none" stroke="black" d="M799.62,-265.18C785.85,-256.09 775.13,-244.13 782.75,-231 785,-227.12 787.86,-223.63 791.12,-220.5"/>
<polygon fill="black" stroke="black" points="793.1,-223.4 798.7,-214.41 788.71,-217.95 793.1,-223.4"/>
<text text-anchor="middle" x="893.38" y="-234.2" font-family="Times,serif" font-size="14.00">Poor outcome, consider end&#45;of&#45;life care </text>
</g>
<!-- Consider bevacizumab treatment&#45;&gt;Monitor response, continue if beneficial -->
<g id="edge30" class="edge">
<title>Consider bevacizumab treatment&#45;&gt;Monitor response, continue if beneficial</title>
<path fill="none" stroke="black" d="M1886.89,-207.57C1867.71,-209.58 1847.74,-211.5 1829,-213 1809.37,-214.57 1488.57,-216.73 1475,-231 1469.95,-236.32 1470.08,-242.06 1475,-247.5 1501.5,-276.84 1622.63,-239.04 1652,-265.5 1673.17,-284.57 1676.94,-318.28 1676.52,-342.47"/>
<polygon fill="black" stroke="black" points="1673.03,-342.14 1676.08,-352.28 1680.02,-342.45 1673.03,-342.14"/>
<text text-anchor="middle" x="1807.04" y="-278.45" font-family="Times,serif" font-size="14.00">Monitor response, consider bevacizumab (100%)</text>
</g>
<!-- Symptomatic recurrence, operable&#45;&gt;Guide treatment intensity -->
<g id="edge41" class="edge">
<title>Symptomatic recurrence, operable&#45;&gt;Guide treatment intensity</title>
<path fill="none" stroke="black" d="M2859.57,-176.51C2845.48,-166.5 2834.12,-153.74 2844.5,-142.5 2867.81,-117.26 3074.24,-110.21 3196.06,-108.24"/>
<polygon fill="black" stroke="black" points="3195.76,-111.75 3205.7,-108.1 3195.65,-104.75 3195.76,-111.75"/>
<text text-anchor="middle" x="3002.75" y="-145.7" font-family="Times,serif" font-size="14.00">Consider additional treatment based on pathology (100%)</text>
</g>
<!-- Progressive decline, KPS&lt;30&#45;&gt;Monitor response, continue if beneficial -->
<g id="edge42" class="edge">
<title>Progressive decline, KPS&lt;30&#45;&gt;Monitor response, continue if beneficial</title>
<path fill="none" stroke="black" d="M1070.09,-118.6C1083.72,-123.92 1096.43,-131.56 1106,-142.5 1137.04,-177.98 1086.84,-215.02 1121,-247.5 1152.7,-277.64 1280.51,-241.38 1317,-265.5 1346.7,-285.13 1325.48,-316.11 1355,-336 1385.71,-356.69 1470.54,-365.33 1545,-368.86"/>
<polygon fill="black" stroke="black" points="1544.72,-372.35 1554.86,-369.29 1545.03,-365.35 1544.72,-372.35"/>
<text text-anchor="middle" x="1238" y="-234.2" font-family="Times,serif" font-size="14.00">Comfort measures, family support (100%)</text>
</g>
<!-- Increase in WHO grade from previous resection&#45;&gt;Guide treatment intensity -->
<g id="edge36" class="edge">
<title>Increase in WHO grade from previous resection&#45;&gt;Guide treatment intensity</title>
<path fill="none" stroke="black" d="M3513.25,-176.53C3483.43,-166.24 3444.69,-153.19 3410,-142.5 3394.01,-137.57 3376.78,-132.56 3360.38,-127.93"/>
<polygon fill="black" stroke="black" points="3361.77,-124.68 3351.2,-125.35 3359.88,-131.42 3361.77,-124.68"/>
<text text-anchor="middle" x="3562.35" y="-145.7" font-family="Times,serif" font-size="14.00">More aggressive treatment approach </text>
</g>
<!-- Assess for TERT, NF2 mutations&#45;&gt;Guide treatment intensity -->
<g id="edge45" class="edge">
<title>Assess for TERT, NF2 mutations&#45;&gt;Guide treatment intensity</title>
<path fill="none" stroke="black" d="M3776.1,-176.58C3746.43,-165.01 3705.42,-150.51 3668,-142.5 3568.74,-121.25 3452.31,-112.89 3374.1,-109.61"/>
<polygon fill="black" stroke="black" points="3374.49,-106.13 3364.36,-109.23 3374.21,-113.12 3374.49,-106.13"/>
<text text-anchor="middle" x="3797.96" y="-145.7" font-family="Times,serif" font-size="14.00">Guide treatment intensity </text>
</g>
<!-- 6&#45;8 cycles for radiation necrosis&#45;&gt;Monitor response, continue if beneficial -->
<g id="edge46" class="edge">
<title>6&#45;8 cycles for radiation necrosis&#45;&gt;Monitor response, continue if beneficial</title>
<path fill="none" stroke="black" d="M1629.35,-211.1C1624.5,-211.77 1619.7,-212.4 1615,-213 1574.9,-218.09 1463.12,-202.96 1434,-231 1411.38,-252.78 1410.32,-276.44 1429.25,-301.5 1445.35,-322.81 1500.85,-339.49 1554.93,-351.17"/>
<polygon fill="black" stroke="black" points="1554.09,-354.57 1564.59,-353.2 1555.53,-347.72 1554.09,-354.57"/>
<text text-anchor="middle" x="1540.62" y="-278.45" font-family="Times,serif" font-size="14.00">Monitor response, continue if beneficial </text>
</g>
</g>
</svg>
