<?xml version="1.0" encoding="UTF-8" standalone="no"?>
<!DOCTYPE svg PUBLIC "-//W3C//DTD SVG 1.1//EN"
 "http://www.w3.org/Graphics/SVG/1.1/DTD/svg11.dtd">
<!-- Generated by graphviz version 12.2.1 (20241206.2353)
 -->
<!-- Title: G Pages: 1 -->
<svg width="1080pt" height="318pt"
 viewBox="0.00 0.00 1296.00 381.65" xmlns="http://www.w3.org/2000/svg" xmlns:xlink="http://www.w3.org/1999/xlink">
<g id="graph0" class="graph" transform="scale(0.312568 0.312568) rotate(0) translate(4 1013.5)">
<title>G</title>
<polygon fill="white" stroke="none" points="-4,4 -4,-1013.5 3451.25,-1013.5 3451.25,4 -4,4"/>
<!-- Meningioma Detected -->
<g id="node1" class="node">
<title>Meningioma Detected</title>
<polygon fill="none" stroke="black" points="1068.12,-1009.5 929.88,-1009.5 929.88,-973.5 1068.12,-973.5 1068.12,-1009.5"/>
<text text-anchor="middle" x="999" y="-986.45" font-family="Times,serif" font-size="14.00">Meningioma Detected</text>
</g>
<!-- Symptomatic? -->
<g id="node2" class="node">
<title>Symptomatic?</title>
<polygon fill="none" stroke="black" points="1046.75,-921 951.25,-921 951.25,-885 1046.75,-885 1046.75,-921"/>
<text text-anchor="middle" x="999" y="-897.95" font-family="Times,serif" font-size="14.00">Symptomatic?</text>
</g>
<!-- Meningioma Detected&#45;&gt;Symptomatic? -->
<g id="edge1" class="edge">
<title>Meningioma Detected&#45;&gt;Symptomatic?</title>
<path fill="none" stroke="black" d="M999,-973.41C999,-961.76 999,-946.05 999,-932.52"/>
<polygon fill="black" stroke="black" points="1002.5,-932.86 999,-922.86 995.5,-932.86 1002.5,-932.86"/>
<text text-anchor="middle" x="1093.5" y="-942.2" font-family="Times,serif" font-size="14.00">Incidental or symptomatic (100%)</text>
</g>
<!-- Watchful Waiting -->
<g id="node3" class="node">
<title>Watchful Waiting</title>
<polygon fill="none" stroke="black" points="1623.38,-832.5 1510.62,-832.5 1510.62,-796.5 1623.38,-796.5 1623.38,-832.5"/>
<text text-anchor="middle" x="1567" y="-809.45" font-family="Times,serif" font-size="14.00">Watchful Waiting</text>
</g>
<!-- Symptomatic?&#45;&gt;Watchful Waiting -->
<g id="edge2" class="edge">
<title>Symptomatic?&#45;&gt;Watchful Waiting</title>
<path fill="none" stroke="black" d="M1046.94,-894.7C1147.88,-879.33 1382.61,-843.58 1499.03,-825.85"/>
<polygon fill="black" stroke="black" points="1499.4,-829.34 1508.76,-824.37 1498.35,-822.42 1499.4,-829.34"/>
<text text-anchor="middle" x="1495.12" y="-853.7" font-family="Times,serif" font-size="14.00">No; Asymptomatic; Size &lt;3cm; Non&#45;critical location (4%)</text>
</g>
<!-- Treatment Decision -->
<g id="node4" class="node">
<title>Treatment Decision</title>
<polygon fill="none" stroke="black" points="1045,-744 921,-744 921,-708 1045,-708 1045,-744"/>
<text text-anchor="middle" x="983" y="-720.95" font-family="Times,serif" font-size="14.00">Treatment Decision</text>
</g>
<!-- Symptomatic?&#45;&gt;Treatment Decision -->
<g id="edge3" class="edge">
<title>Symptomatic?&#45;&gt;Treatment Decision</title>
<path fill="none" stroke="black" d="M997.41,-884.58C994.65,-854.44 988.97,-792.3 985.62,-755.7"/>
<polygon fill="black" stroke="black" points="989.12,-755.5 984.72,-745.86 982.15,-756.13 989.12,-755.5"/>
<text text-anchor="middle" x="1143.34" y="-809.45" font-family="Times,serif" font-size="14.00">Yes; Symptomatic; Size &gt;3cm; Critical location (95%)</text>
</g>
<!-- Watchful Waiting&#45;&gt;Watchful Waiting -->
<g id="edge4" class="edge">
<title>Watchful Waiting&#45;&gt;Watchful Waiting</title>
<path fill="none" stroke="black" d="M1623.75,-822.34C1634.11,-821.35 1641.38,-818.73 1641.38,-814.5 1641.38,-812.05 1638.95,-810.15 1634.9,-808.78"/>
<polygon fill="black" stroke="black" points="1635.71,-805.37 1625.24,-806.94 1634.4,-812.25 1635.71,-805.37"/>
<text text-anchor="middle" x="1828.88" y="-809.45" font-family="Times,serif" font-size="14.00">Stable; No new symptoms; KPS stable; &lt;1.5mm growth/year (14%)</text>
</g>
<!-- Watchful Waiting&#45;&gt;Treatment Decision -->
<g id="edge5" class="edge">
<title>Watchful Waiting&#45;&gt;Treatment Decision</title>
<path fill="none" stroke="black" d="M1510.25,-810.05C1370.23,-801.53 1019.4,-780.04 1016.75,-778.5 1007.29,-772.99 999.99,-763.64 994.65,-754.41"/>
<polygon fill="black" stroke="black" points="997.8,-752.89 990.12,-745.6 991.57,-756.09 997.8,-752.89"/>
<text text-anchor="middle" x="1199.38" y="-765.2" font-family="Times,serif" font-size="14.00">Tumor growth &gt;1.5mm/year; New symptoms; KPS decline (51%)</text>
</g>
<!-- Recurrence Evaluation -->
<g id="node5" class="node">
<title>Recurrence Evaluation</title>
<polygon fill="none" stroke="black" points="1849.88,-213 1710.12,-213 1710.12,-177 1849.88,-177 1849.88,-213"/>
<text text-anchor="middle" x="1780" y="-189.95" font-family="Times,serif" font-size="14.00">Recurrence Evaluation</text>
</g>
<!-- Watchful Waiting&#45;&gt;Recurrence Evaluation -->
<g id="edge6" class="edge">
<title>Watchful Waiting&#45;&gt;Recurrence Evaluation</title>
<path fill="none" stroke="black" d="M1623.62,-813.07C1888.1,-810.7 2989,-796.64 2989,-727 2989,-727 2989,-727 2989,-282.5 2989,-225.84 2133.02,-203.29 1861.56,-197.56"/>
<polygon fill="black" stroke="black" points="1861.81,-194.07 1851.74,-197.36 1861.66,-201.06 1861.81,-194.07"/>
<text text-anchor="middle" x="3218.12" y="-499.7" font-family="Times,serif" font-size="14.00">New enhancement on MRI; Symptom recurrence; &gt;6 months post&#45;treatment (34%)</text>
</g>
<!-- Surgery -->
<g id="node6" class="node">
<title>Surgery</title>
<polygon fill="none" stroke="black" points="870.38,-655.5 811.62,-655.5 811.62,-619.5 870.38,-619.5 870.38,-655.5"/>
<text text-anchor="middle" x="841" y="-632.45" font-family="Times,serif" font-size="14.00">Surgery</text>
</g>
<!-- Treatment Decision&#45;&gt;Surgery -->
<g id="edge7" class="edge">
<title>Treatment Decision&#45;&gt;Surgery</title>
<path fill="none" stroke="black" d="M954.61,-707.7C932.93,-694.5 902.86,-676.18 879.1,-661.71"/>
<polygon fill="black" stroke="black" points="881,-658.77 870.64,-656.55 877.36,-664.75 881,-658.77"/>
<text text-anchor="middle" x="1096.47" y="-676.7" font-family="Times,serif" font-size="14.00">Operable; Progressive symptoms; KPS &gt;60; Size &gt;3cm (59%)</text>
</g>
<!-- Radiation -->
<g id="node7" class="node">
<title>Radiation</title>
<polygon fill="none" stroke="black" points="1229.25,-124.5 1160.75,-124.5 1160.75,-88.5 1229.25,-88.5 1229.25,-124.5"/>
<text text-anchor="middle" x="1195" y="-101.45" font-family="Times,serif" font-size="14.00">Radiation</text>
</g>
<!-- Treatment Decision&#45;&gt;Radiation -->
<g id="edge8" class="edge">
<title>Treatment Decision&#45;&gt;Radiation</title>
<path fill="none" stroke="black" d="M920.74,-722.27C769.66,-714.83 396,-691.1 396,-638.5 396,-638.5 396,-638.5 396,-194 396,-117.7 979.33,-108.64 1149.14,-107.61"/>
<polygon fill="black" stroke="black" points="1148.92,-111.12 1158.9,-107.56 1148.88,-104.12 1148.92,-111.12"/>
<text text-anchor="middle" x="577.88" y="-411.2" font-family="Times,serif" font-size="14.00">Inoperable; Size &lt;3cm; Critical location; Patient preference (38%)</text>
</g>
<!-- Palliative Care -->
<g id="node8" class="node">
<title>Palliative Care</title>
<polygon fill="none" stroke="black" points="2046.12,-124.5 1949.88,-124.5 1949.88,-88.5 2046.12,-88.5 2046.12,-124.5"/>
<text text-anchor="middle" x="1998" y="-101.45" font-family="Times,serif" font-size="14.00">Palliative Care</text>
</g>
<!-- Treatment Decision&#45;&gt;Palliative Care -->
<g id="edge9" class="edge">
<title>Treatment Decision&#45;&gt;Palliative Care</title>
<path fill="none" stroke="black" d="M1045.17,-725.05C1345.64,-724.91 2633,-719.58 2633,-638.5 2633,-638.5 2633,-638.5 2633,-194 2633,-136.3 2216.08,-115.31 2057.89,-109.43"/>
<polygon fill="black" stroke="black" points="2058.14,-105.94 2048.02,-109.07 2057.89,-112.93 2058.14,-105.94"/>
<text text-anchor="middle" x="2803.62" y="-411.2" font-family="Times,serif" font-size="14.00">Multiple recurrences; KPS &lt;50; Extensive tumor burden (2%)</text>
</g>
<!-- Recurrence Evaluation&#45;&gt;Surgery -->
<g id="edge21" class="edge">
<title>Recurrence Evaluation&#45;&gt;Surgery</title>
<path fill="none" stroke="black" d="M1709.8,-212.25C1708.19,-212.52 1706.58,-212.77 1705,-213 1592.6,-229.61 1563.05,-219.72 1450,-231 1330.94,-242.88 1284.96,-202.88 1183,-265.5 1150.7,-285.34 1166.32,-314.64 1135,-336 1016,-417.16 908.83,-295.4 819,-408 772.29,-466.55 806.02,-562.28 827.25,-609.05"/>
<polygon fill="black" stroke="black" points="824.01,-610.37 831.43,-617.94 830.35,-607.4 824.01,-610.37"/>
<text text-anchor="middle" x="1009.5" y="-411.2" font-family="Times,serif" font-size="14.00">Operable; KPS &gt;60; Limited prior radiation; Single recurrence (48%)</text>
</g>
<!-- Recurrence Evaluation&#45;&gt;Radiation -->
<g id="edge22" class="edge">
<title>Recurrence Evaluation&#45;&gt;Radiation</title>
<path fill="none" stroke="black" d="M1709.78,-181.96C1698.18,-180.17 1686.27,-178.44 1675,-177 1589.87,-166.14 1567.78,-170.57 1482.75,-159 1396.66,-147.29 1297.02,-128.21 1240.46,-116.85"/>
<polygon fill="black" stroke="black" points="1241.38,-113.47 1230.88,-114.92 1239.99,-120.33 1241.38,-113.47"/>
<text text-anchor="middle" x="1645.88" y="-145.7" font-family="Times,serif" font-size="14.00">Inoperable; KPS &gt;60; No prior radiation; Size &lt;3cm (18%)</text>
</g>
<!-- Recurrence Evaluation&#45;&gt;Palliative Care -->
<g id="edge24" class="edge">
<title>Recurrence Evaluation&#45;&gt;Palliative Care</title>
<path fill="none" stroke="black" d="M1793.85,-176.59C1803.87,-165.17 1818.4,-150.85 1834.25,-142.5 1866.34,-125.59 1906.06,-116.85 1938.34,-112.33"/>
<polygon fill="black" stroke="black" points="1938.45,-115.84 1947.92,-111.1 1937.55,-108.9 1938.45,-115.84"/>
<text text-anchor="middle" x="2013.12" y="-145.7" font-family="Times,serif" font-size="14.00">Multifocal recurrence; KPS &lt;50; Limited treatment options (8%)</text>
</g>
<!-- Systemic Therapy -->
<g id="node11" class="node">
<title>Systemic Therapy</title>
<polygon fill="none" stroke="black" points="1876.12,-390 1761.88,-390 1761.88,-354 1876.12,-354 1876.12,-390"/>
<text text-anchor="middle" x="1819" y="-366.95" font-family="Times,serif" font-size="14.00">Systemic Therapy</text>
</g>
<!-- Recurrence Evaluation&#45;&gt;Systemic Therapy -->
<g id="edge23" class="edge">
<title>Recurrence Evaluation&#45;&gt;Systemic Therapy</title>
<path fill="none" stroke="black" d="M1822.94,-213.4C1829.77,-218.09 1835.92,-223.89 1840,-231 1863.24,-271.47 1852.46,-291.03 1840,-336 1839.28,-338.59 1838.31,-341.19 1837.19,-343.72"/>
<polygon fill="black" stroke="black" points="1834.2,-341.88 1832.6,-352.35 1840.39,-345.17 1834.2,-341.88"/>
<text text-anchor="middle" x="2028.8" y="-278.45" font-family="Times,serif" font-size="14.00">Multiple recurrences; Not candidate for surgery/radiation (24%)</text>
</g>
<!-- Post&#45;operative Evaluation -->
<g id="node9" class="node">
<title>Post&#45;operative Evaluation</title>
<polygon fill="none" stroke="black" points="1456.12,-567 1299.88,-567 1299.88,-531 1456.12,-531 1456.12,-567"/>
<text text-anchor="middle" x="1378" y="-543.95" font-family="Times,serif" font-size="14.00">Post&#45;operative Evaluation</text>
</g>
<!-- Surgery&#45;&gt;Post&#45;operative Evaluation -->
<g id="edge10" class="edge">
<title>Surgery&#45;&gt;Post&#45;operative Evaluation</title>
<path fill="none" stroke="black" d="M868.46,-619.25C888.73,-607.43 917.43,-592.58 944.75,-585 1007.1,-567.7 1180.36,-557.87 1287.93,-553.27"/>
<polygon fill="black" stroke="black" points="1288.07,-556.76 1297.91,-552.85 1287.77,-549.77 1288.07,-556.76"/>
<text text-anchor="middle" x="1163.38" y="-588.2" font-family="Times,serif" font-size="14.00">Resection completed; Assess residual tumor; Simpson grade; Pathology (100%)</text>
</g>
<!-- Treatment Response Evaluation -->
<g id="node12" class="node">
<title>Treatment Response Evaluation</title>
<polygon fill="none" stroke="black" points="1818,-301.5 1628,-301.5 1628,-265.5 1818,-265.5 1818,-301.5"/>
<text text-anchor="middle" x="1723" y="-278.45" font-family="Times,serif" font-size="14.00">Treatment Response Evaluation</text>
</g>
<!-- Radiation&#45;&gt;Treatment Response Evaluation -->
<g id="edge17" class="edge">
<title>Radiation&#45;&gt;Treatment Response Evaluation</title>
<path fill="none" stroke="black" d="M1204.67,-124.83C1218.93,-148.68 1247.95,-191.15 1284.75,-213 1412.16,-288.66 1467.11,-245.99 1614,-265.5 1614.84,-265.61 1615.68,-265.72 1616.52,-265.84"/>
<polygon fill="black" stroke="black" points="1615.74,-269.26 1626.13,-267.16 1616.7,-262.33 1615.74,-269.26"/>
<text text-anchor="middle" x="1492.88" y="-189.95" font-family="Times,serif" font-size="14.00">SRS/IMRT completed; Assess tumor response; Monitor side effects (100%)</text>
</g>
<!-- Symptom Management -->
<g id="node13" class="node">
<title>Symptom Management</title>
<polygon fill="none" stroke="black" points="620.88,-36 475.12,-36 475.12,0 620.88,0 620.88,-36"/>
<text text-anchor="middle" x="548" y="-12.95" font-family="Times,serif" font-size="14.00">Symptom Management</text>
</g>
<!-- Palliative Care&#45;&gt;Symptom Management -->
<g id="edge27" class="edge">
<title>Palliative Care&#45;&gt;Symptom Management</title>
<path fill="none" stroke="black" d="M1949.76,-102.62C1739.63,-90.09 902.74,-40.16 632.57,-24.04"/>
<polygon fill="black" stroke="black" points="632.98,-20.56 622.79,-23.46 632.57,-27.55 632.98,-20.56"/>
<text text-anchor="middle" x="1542" y="-57.2" font-family="Times,serif" font-size="14.00">Focus on quality of life; Manage symptoms (57%)</text>
</g>
<!-- Hospice Referral -->
<g id="node14" class="node">
<title>Hospice Referral</title>
<polygon fill="none" stroke="black" points="2052.12,-36 1943.88,-36 1943.88,0 2052.12,0 2052.12,-36"/>
<text text-anchor="middle" x="1998" y="-12.95" font-family="Times,serif" font-size="14.00">Hospice Referral</text>
</g>
<!-- Palliative Care&#45;&gt;Hospice Referral -->
<g id="edge28" class="edge">
<title>Palliative Care&#45;&gt;Hospice Referral</title>
<path fill="none" stroke="black" d="M1998,-88.41C1998,-76.76 1998,-61.05 1998,-47.52"/>
<polygon fill="black" stroke="black" points="2001.5,-47.86 1998,-37.86 1994.5,-47.86 2001.5,-47.86"/>
<text text-anchor="middle" x="2164.12" y="-57.2" font-family="Times,serif" font-size="14.00">Rapid progression; KPS &lt;40; Limited life expectancy (42%)</text>
</g>
<!-- Post&#45;operative Evaluation&#45;&gt;Watchful Waiting -->
<g id="edge11" class="edge">
<title>Post&#45;operative Evaluation&#45;&gt;Watchful Waiting</title>
<path fill="none" stroke="black" d="M1376.24,-567.35C1374.27,-595.28 1373.94,-651.05 1397.25,-690 1424.99,-736.36 1477.53,-770.45 1516.84,-790.92"/>
<polygon fill="black" stroke="black" points="1515.19,-794.01 1525.69,-795.4 1518.35,-787.76 1515.19,-794.01"/>
<text text-anchor="middle" x="1561.12" y="-676.7" font-family="Times,serif" font-size="14.00">Total resection; Grade I; Stable symptoms; KPS &gt;80 (34%)</text>
</g>
<!-- Post&#45;operative Evaluation&#45;&gt;Radiation -->
<g id="edge12" class="edge">
<title>Post&#45;operative Evaluation&#45;&gt;Radiation</title>
<path fill="none" stroke="black" d="M1372.1,-530.53C1367.24,-518.93 1359.14,-504.43 1347,-496.5 1129.26,-354.27 775,-633.08 775,-373 775,-373 775,-373 775,-194 775,-118.31 1039.98,-108.29 1149,-107.37"/>
<polygon fill="black" stroke="black" points="1148.78,-110.87 1158.76,-107.31 1148.74,-103.87 1148.78,-110.87"/>
<text text-anchor="middle" x="954.25" y="-322.7" font-family="Times,serif" font-size="14.00">Subtotal resection; Residual tumor &gt;1cm; Critical location (19%)</text>
</g>
<!-- Adjuvant Therapy Decision -->
<g id="node10" class="node">
<title>Adjuvant Therapy Decision</title>
<polygon fill="none" stroke="black" points="1671,-478.5 1505,-478.5 1505,-442.5 1671,-442.5 1671,-478.5"/>
<text text-anchor="middle" x="1588" y="-455.45" font-family="Times,serif" font-size="14.00">Adjuvant Therapy Decision</text>
</g>
<!-- Post&#45;operative Evaluation&#45;&gt;Adjuvant Therapy Decision -->
<g id="edge13" class="edge">
<title>Post&#45;operative Evaluation&#45;&gt;Adjuvant Therapy Decision</title>
<path fill="none" stroke="black" d="M1379.35,-530.69C1381.17,-519.32 1385.41,-505.02 1395.25,-496.5 1410.41,-483.37 1452.51,-474.91 1493.51,-469.6"/>
<polygon fill="black" stroke="black" points="1493.74,-473.1 1503.24,-468.41 1492.89,-466.16 1493.74,-473.1"/>
<text text-anchor="middle" x="1599.62" y="-499.7" font-family="Times,serif" font-size="14.00">WHO Grade II/III; Atypical/Anaplastic features; High MIB&#45;1 index (45%)</text>
</g>
<!-- Adjuvant Therapy Decision&#45;&gt;Watchful Waiting -->
<g id="edge16" class="edge">
<title>Adjuvant Therapy Decision&#45;&gt;Watchful Waiting</title>
<path fill="none" stroke="black" d="M1671.39,-464.15C1724.68,-467.8 1786.89,-476.39 1804,-496.5 1842.38,-541.6 1776.45,-565.23 1752.75,-619.5 1739.27,-650.36 1745.14,-663.01 1725,-690 1693.12,-732.72 1642.86,-768.51 1607.6,-790.39"/>
<polygon fill="black" stroke="black" points="1606.1,-787.21 1599.38,-795.39 1609.74,-793.18 1606.1,-787.21"/>
<text text-anchor="middle" x="1972.88" y="-632.45" font-family="Times,serif" font-size="14.00">WHO Grade II; Complete resection; Low MIB&#45;1 index; Patient preference (6%)</text>
</g>
<!-- Adjuvant Therapy Decision&#45;&gt;Radiation -->
<g id="edge14" class="edge">
<title>Adjuvant Therapy Decision&#45;&gt;Radiation</title>
<path fill="none" stroke="black" d="M1504.61,-450.89C1414.05,-436.67 1273.15,-399.26 1204.25,-301.5 1169.33,-251.96 1178.89,-176.34 1187.68,-135.69"/>
<polygon fill="black" stroke="black" points="1191.03,-136.74 1189.88,-126.21 1184.21,-135.16 1191.03,-136.74"/>
<text text-anchor="middle" x="1411.62" y="-278.45" font-family="Times,serif" font-size="14.00">WHO Grade II; Simpson Grade II/III resection; High recurrence risk (86%)</text>
</g>
<!-- Adjuvant Therapy Decision&#45;&gt;Systemic Therapy -->
<g id="edge15" class="edge">
<title>Adjuvant Therapy Decision&#45;&gt;Systemic Therapy</title>
<path fill="none" stroke="black" d="M1634.47,-442.1C1671.2,-428.35 1722.64,-409.08 1761.88,-394.39"/>
<polygon fill="black" stroke="black" points="1763.05,-397.69 1771.19,-390.9 1760.6,-391.13 1763.05,-397.69"/>
<text text-anchor="middle" x="1928.19" y="-411.2" font-family="Times,serif" font-size="14.00">WHO Grade III; Genetic alterations (e.g., TERT); Rapid progression (6%)</text>
</g>
<!-- Systemic Therapy&#45;&gt;Palliative Care -->
<g id="edge26" class="edge">
<title>Systemic Therapy&#45;&gt;Palliative Care</title>
<path fill="none" stroke="black" d="M1876.44,-369.43C1974.19,-365.4 2166.38,-351.21 2208,-301.5 2218.27,-289.23 2209.03,-281.47 2208,-265.5 2207.11,-251.75 2201.5,-152.48 2192,-142.5 2173.88,-123.47 2107.71,-114.68 2057.65,-110.69"/>
<polygon fill="black" stroke="black" points="2058.01,-107.2 2047.78,-109.95 2057.49,-114.19 2058.01,-107.2"/>
<text text-anchor="middle" x="2412.72" y="-234.2" font-family="Times,serif" font-size="14.00">Disease progression; KPS decline; Refractory to multiple treatments (47%)</text>
</g>
<!-- Systemic Therapy&#45;&gt;Treatment Response Evaluation -->
<g id="edge25" class="edge">
<title>Systemic Therapy&#45;&gt;Treatment Response Evaluation</title>
<path fill="none" stroke="black" d="M1761.53,-371.67C1693.21,-371.1 1585.19,-365.39 1559.5,-336 1554.67,-330.48 1554.89,-325.2 1559.5,-319.5 1563.89,-314.07 1588.07,-307.78 1616.55,-302.04"/>
<polygon fill="black" stroke="black" points="1617.02,-305.52 1626.16,-300.16 1615.67,-298.65 1617.02,-305.52"/>
<text text-anchor="middle" x="1699.75" y="-322.7" font-family="Times,serif" font-size="14.00">Assess tumor response; Monitor side effects (52%)</text>
</g>
<!-- Treatment Response Evaluation&#45;&gt;Watchful Waiting -->
<g id="edge18" class="edge">
<title>Treatment Response Evaluation&#45;&gt;Watchful Waiting</title>
<path fill="none" stroke="black" d="M1818.33,-299.16C1959.34,-321.18 2207,-361.23 2207,-371 2207,-727 2207,-727 2207,-727 2207,-784.21 1800.19,-805.18 1635.24,-811.33"/>
<polygon fill="black" stroke="black" points="1635.17,-807.83 1625.31,-811.69 1635.43,-814.83 1635.17,-807.83"/>
<text text-anchor="middle" x="2405.75" y="-543.95" font-family="Times,serif" font-size="14.00">Tumor shrinkage; Symptom improvement; Stable/No side effects (54%)</text>
</g>
<!-- Treatment Response Evaluation&#45;&gt;Treatment Decision -->
<g id="edge19" class="edge">
<title>Treatment Response Evaluation&#45;&gt;Treatment Decision</title>
<path fill="none" stroke="black" d="M1628.03,-301.93C1603.16,-307.05 1576.46,-313.02 1552,-319.5 1521.41,-327.6 1029.08,-470.88 1010.5,-496.5 936.74,-598.22 1202.52,-485.31 1279,-585 1307.47,-622.11 1304.38,-656.25 1272,-690 1257.28,-705.35 1136.96,-715.65 1056.28,-720.9"/>
<polygon fill="black" stroke="black" points="1056.44,-717.38 1046.69,-721.51 1056.89,-724.37 1056.44,-717.38"/>
<text text-anchor="middle" x="1195.75" y="-499.7" font-family="Times,serif" font-size="14.00">Tumor growth; Symptom progression; Intolerable side effects (2%)</text>
</g>
<!-- Treatment Response Evaluation&#45;&gt;Recurrence Evaluation -->
<g id="edge20" class="edge">
<title>Treatment Response Evaluation&#45;&gt;Recurrence Evaluation</title>
<path fill="none" stroke="black" d="M1627.62,-267.42C1623.02,-266.76 1618.46,-266.11 1614,-265.5 1546.02,-256.14 1417.08,-281.54 1463.5,-231 1479.45,-213.63 1651.59,-215.89 1675,-213 1682.66,-212.06 1690.62,-210.97 1698.57,-209.8"/>
<polygon fill="black" stroke="black" points="1698.92,-213.29 1708.29,-208.35 1697.88,-206.37 1698.92,-213.29"/>
<text text-anchor="middle" x="1651.75" y="-234.2" font-family="Times,serif" font-size="14.00">New lesions; Symptom recurrence; &gt;6 months post&#45;treatment (42%)</text>
</g>
<!-- Symptom Management&#45;&gt;Treatment Decision -->
<g id="edge29" class="edge">
<title>Symptom Management&#45;&gt;Treatment Decision</title>
<path fill="none" stroke="black" d="M474.66,-23.07C325.34,-32.35 0,-58 0,-105.5 0,-638.5 0,-638.5 0,-638.5 0,-684.12 680.8,-713.72 909.26,-722.36"/>
<polygon fill="black" stroke="black" points="909.13,-725.86 919.25,-722.74 909.39,-718.87 909.13,-725.86"/>
<text text-anchor="middle" x="183.75" y="-366.95" font-family="Times,serif" font-size="14.00">Symptoms worsening; Affecting daily life; Patient preference (0%)</text>
</g>
</g>
</svg>
