<?xml version="1.0" encoding="UTF-8" standalone="no"?>
<!DOCTYPE svg PUBLIC "-//W3C//DTD SVG 1.1//EN"
 "http://www.w3.org/Graphics/SVG/1.1/DTD/svg11.dtd">
<!-- Generated by graphviz version 12.2.1 (20241206.2353)
 -->
<!-- Title: G Pages: 1 -->
<svg width="339pt" height="840pt"
 viewBox="0.00 0.00 349.20 864.00" xmlns="http://www.w3.org/2000/svg" xmlns:xlink="http://www.w3.org/1999/xlink">
<g id="graph0" class="graph" transform="scale(0.795078 0.795078) rotate(0) translate(4 1052.5)">
<title>G</title>
<polygon fill="white" stroke="none" points="-4,4 -4,-1052.5 423,-1052.5 423,4 -4,4"/>
<!-- Symptomatic? -->
<g id="node1" class="node">
<title>Symptomatic?</title>
<polygon fill="none" stroke="black" points="271.75,-675 176.25,-675 176.25,-639 271.75,-639 271.75,-675"/>
<text text-anchor="middle" x="224" y="-651.95" font-family="Times,serif" font-size="14.00">Symptomatic?</text>
</g>
<!-- No -->
<g id="node2" class="node">
<title>No</title>
<polygon fill="none" stroke="black" points="183,-586.5 129,-586.5 129,-550.5 183,-550.5 183,-586.5"/>
<text text-anchor="middle" x="156" y="-563.45" font-family="Times,serif" font-size="14.00">No</text>
</g>
<!-- Symptomatic?&#45;&gt;No -->
<g id="edge1" class="edge">
<title>Symptomatic?&#45;&gt;No</title>
<path fill="none" stroke="black" d="M189.06,-638.55C182.02,-633.69 175.25,-627.83 170.25,-621 165.32,-614.26 162.09,-605.89 159.98,-597.87"/>
<polygon fill="black" stroke="black" points="163.41,-597.16 157.93,-588.09 156.56,-598.59 163.41,-597.16"/>
<text text-anchor="middle" x="197.62" y="-607.7" font-family="Times,serif" font-size="14.00">No (12%)</text>
</g>
<!-- Yes -->
<g id="node3" class="node">
<title>Yes</title>
<polygon fill="none" stroke="black" points="298,-586.5 244,-586.5 244,-550.5 298,-550.5 298,-586.5"/>
<text text-anchor="middle" x="271" y="-563.45" font-family="Times,serif" font-size="14.00">Yes</text>
</g>
<!-- Symptomatic?&#45;&gt;Yes -->
<g id="edge2" class="edge">
<title>Symptomatic?&#45;&gt;Yes</title>
<path fill="none" stroke="black" d="M225.35,-638.9C226.76,-628.44 229.64,-615.08 235.5,-604.5 237.3,-601.24 239.5,-598.1 241.92,-595.11"/>
<polygon fill="black" stroke="black" points="244.42,-597.55 248.58,-587.81 239.25,-592.83 244.42,-597.55"/>
<text text-anchor="middle" x="264.75" y="-607.7" font-family="Times,serif" font-size="14.00">Yes (87%)</text>
</g>
<!-- Operable -->
<g id="node4" class="node">
<title>Operable</title>
<polygon fill="none" stroke="black" points="246.75,-498 181.25,-498 181.25,-462 246.75,-462 246.75,-498"/>
<text text-anchor="middle" x="214" y="-474.95" font-family="Times,serif" font-size="14.00">Operable</text>
</g>
<!-- Yes&#45;&gt;Operable -->
<g id="edge3" class="edge">
<title>Yes&#45;&gt;Operable</title>
<path fill="none" stroke="black" d="M243.71,-554.05C235.2,-548.53 226.65,-541.33 221.25,-532.5 217.12,-525.75 214.97,-517.58 213.93,-509.76"/>
<polygon fill="black" stroke="black" points="217.42,-509.61 213.19,-499.9 210.44,-510.13 217.42,-509.61"/>
<text text-anchor="middle" x="265.12" y="-519.2" font-family="Times,serif" font-size="14.00">Operable (83%)</text>
</g>
<!-- Incomplete -->
<g id="node5" class="node">
<title>Incomplete</title>
<polygon fill="none" stroke="black" points="361.75,-124.5 284.25,-124.5 284.25,-88.5 361.75,-88.5 361.75,-124.5"/>
<text text-anchor="middle" x="323" y="-101.45" font-family="Times,serif" font-size="14.00">Incomplete</text>
</g>
<!-- Yes&#45;&gt;Incomplete -->
<g id="edge4" class="edge">
<title>Yes&#45;&gt;Incomplete</title>
<path fill="none" stroke="black" d="M294.11,-550.05C299.65,-544.92 305.09,-538.94 309,-532.5 321.32,-512.23 323,-504.72 323,-481 323,-481 323,-481 323,-213.5 323,-187.35 323,-157.57 323,-136.24"/>
<polygon fill="black" stroke="black" points="326.5,-136.27 323,-126.27 319.5,-136.27 326.5,-136.27"/>
<text text-anchor="middle" x="371" y="-342.2" font-family="Times,serif" font-size="14.00">Inoperable (16%)</text>
</g>
<!-- Pathology Grade -->
<g id="node13" class="node">
<title>Pathology Grade</title>
<polygon fill="none" stroke="black" points="258.75,-409.5 151.25,-409.5 151.25,-373.5 258.75,-373.5 258.75,-409.5"/>
<text text-anchor="middle" x="205" y="-386.45" font-family="Times,serif" font-size="14.00">Pathology Grade</text>
</g>
<!-- Operable&#45;&gt;Pathology Grade -->
<g id="edge13" class="edge">
<title>Operable&#45;&gt;Pathology Grade</title>
<path fill="none" stroke="black" d="M212.22,-461.91C211.01,-450.26 209.37,-434.55 207.97,-421.02"/>
<polygon fill="black" stroke="black" points="211.48,-420.94 206.96,-411.36 204.52,-421.66 211.48,-420.94"/>
<text text-anchor="middle" x="230.93" y="-430.7" font-family="Times,serif" font-size="14.00">(100%)</text>
</g>
<!-- Complete -->
<g id="node7" class="node">
<title>Complete</title>
<polygon fill="none" stroke="black" points="209.62,-36 140.38,-36 140.38,0 209.62,0 209.62,-36"/>
<text text-anchor="middle" x="175" y="-12.95" font-family="Times,serif" font-size="14.00">Complete</text>
</g>
<!-- Incomplete&#45;&gt;Complete -->
<g id="edge18" class="edge">
<title>Incomplete&#45;&gt;Complete</title>
<path fill="none" stroke="black" d="M293.41,-88.2C270.79,-74.99 239.4,-56.64 214.62,-42.16"/>
<polygon fill="black" stroke="black" points="216.5,-39.2 206.1,-37.18 212.97,-45.25 216.5,-39.2"/>
<text text-anchor="middle" x="282.88" y="-57.2" font-family="Times,serif" font-size="14.00">(100%)</text>
</g>
<!-- Extent of Resection -->
<g id="node6" class="node">
<title>Extent of Resection</title>
<polygon fill="none" stroke="black" points="266.62,-232.5 143.38,-232.5 143.38,-196.5 266.62,-196.5 266.62,-232.5"/>
<text text-anchor="middle" x="205" y="-209.45" font-family="Times,serif" font-size="14.00">Extent of Resection</text>
</g>
<!-- Extent of Resection&#45;&gt;Incomplete -->
<g id="edge6" class="edge">
<title>Extent of Resection&#45;&gt;Incomplete</title>
<path fill="none" stroke="black" d="M200.89,-196.05C198.27,-180.33 197.31,-157.46 209.25,-142.5 227.08,-120.15 243.69,-132.94 271,-124.5 271.65,-124.3 272.31,-124.09 272.97,-123.89"/>
<polygon fill="black" stroke="black" points="273.94,-127.25 282.42,-120.9 271.83,-120.58 273.94,-127.25"/>
<text text-anchor="middle" x="259.12" y="-155.45" font-family="Times,serif" font-size="14.00">Incomplete (62%)</text>
</g>
<!-- Extent of Resection&#45;&gt;Complete -->
<g id="edge5" class="edge">
<title>Extent of Resection&#45;&gt;Complete</title>
<path fill="none" stroke="black" d="M199.78,-196.12C198.17,-190.51 196.44,-184.26 195,-178.5 189.07,-154.69 187.05,-148.78 183.5,-124.5 179.72,-98.66 177.52,-69 176.31,-47.72"/>
<polygon fill="black" stroke="black" points="179.8,-47.57 175.78,-37.77 172.81,-47.94 179.8,-47.57"/>
<text text-anchor="middle" x="229.25" y="-101.45" font-family="Times,serif" font-size="14.00">Complete (37%)</text>
</g>
<!-- Suspected Meningioma -->
<g id="node8" class="node">
<title>Suspected Meningioma</title>
<polygon fill="none" stroke="black" points="340.5,-1048.5 195.5,-1048.5 195.5,-1012.5 340.5,-1012.5 340.5,-1048.5"/>
<text text-anchor="middle" x="268" y="-1025.45" font-family="Times,serif" font-size="14.00">Suspected Meningioma</text>
</g>
<!-- MRI Brain -->
<g id="node9" class="node">
<title>MRI Brain</title>
<polygon fill="none" stroke="black" points="306,-960 230,-960 230,-924 306,-924 306,-960"/>
<text text-anchor="middle" x="268" y="-936.95" font-family="Times,serif" font-size="14.00">MRI Brain</text>
</g>
<!-- Suspected Meningioma&#45;&gt;MRI Brain -->
<g id="edge7" class="edge">
<title>Suspected Meningioma&#45;&gt;MRI Brain</title>
<path fill="none" stroke="black" d="M268,-1012.41C268,-1000.76 268,-985.05 268,-971.52"/>
<polygon fill="black" stroke="black" points="271.5,-971.86 268,-961.86 264.5,-971.86 271.5,-971.86"/>
<text text-anchor="middle" x="288.62" y="-981.2" font-family="Times,serif" font-size="14.00">(100%)</text>
</g>
<!-- Tumor Size -->
<g id="node10" class="node">
<title>Tumor Size</title>
<polygon fill="none" stroke="black" points="308.25,-871.5 227.75,-871.5 227.75,-835.5 308.25,-835.5 308.25,-871.5"/>
<text text-anchor="middle" x="268" y="-848.45" font-family="Times,serif" font-size="14.00">Tumor Size</text>
</g>
<!-- MRI Brain&#45;&gt;Tumor Size -->
<g id="edge8" class="edge">
<title>MRI Brain&#45;&gt;Tumor Size</title>
<path fill="none" stroke="black" d="M268,-923.91C268,-912.26 268,-896.55 268,-883.02"/>
<polygon fill="black" stroke="black" points="271.5,-883.36 268,-873.36 264.5,-883.36 271.5,-883.36"/>
<text text-anchor="middle" x="288.62" y="-892.7" font-family="Times,serif" font-size="14.00">(100%)</text>
</g>
<!-- &lt;3 cm -->
<g id="node11" class="node">
<title>&lt;3 cm</title>
<polygon fill="none" stroke="black" points="265,-783 211,-783 211,-747 265,-747 265,-783"/>
<text text-anchor="middle" x="238" y="-759.95" font-family="Times,serif" font-size="14.00">&lt;3 cm</text>
</g>
<!-- Tumor Size&#45;&gt;&lt;3 cm -->
<g id="edge9" class="edge">
<title>Tumor Size&#45;&gt;&lt;3 cm</title>
<path fill="none" stroke="black" d="M257.48,-835.14C254.48,-829.64 251.45,-823.45 249.25,-817.5 246.52,-810.09 244.35,-801.82 242.67,-794.11"/>
<polygon fill="black" stroke="black" points="246.15,-793.66 240.79,-784.52 239.28,-795.01 246.15,-793.66"/>
<text text-anchor="middle" x="263.12" y="-804.2" font-family="Times,serif" font-size="14.00">(9%)</text>
</g>
<!-- &gt;3 cm -->
<g id="node12" class="node">
<title>&gt;3 cm</title>
<polygon fill="none" stroke="black" points="332,-729 278,-729 278,-693 332,-693 332,-729"/>
<text text-anchor="middle" x="305" y="-705.95" font-family="Times,serif" font-size="14.00">&gt;3 cm</text>
</g>
<!-- Tumor Size&#45;&gt;&gt;3 cm -->
<g id="edge10" class="edge">
<title>Tumor Size&#45;&gt;&gt;3 cm</title>
<path fill="none" stroke="black" d="M272.54,-835.27C278.78,-811.57 290.09,-768.62 297.57,-740.2"/>
<polygon fill="black" stroke="black" points="300.88,-741.39 300.04,-730.83 294.11,-739.61 300.88,-741.39"/>
<text text-anchor="middle" x="298.27" y="-804.2" font-family="Times,serif" font-size="14.00">(90%)</text>
</g>
<!-- &lt;3 cm&#45;&gt;Symptomatic? -->
<g id="edge11" class="edge">
<title>&lt;3 cm&#45;&gt;Symptomatic?</title>
<path fill="none" stroke="black" d="M232.08,-746.74C230.4,-741.14 228.75,-734.87 227.75,-729 225.38,-715.12 224.38,-699.51 224,-686.47"/>
<polygon fill="black" stroke="black" points="227.5,-686.79 223.83,-676.85 220.51,-686.91 227.5,-686.79"/>
<text text-anchor="middle" x="248.38" y="-705.95" font-family="Times,serif" font-size="14.00">(100%)</text>
</g>
<!-- &gt;3 cm&#45;&gt;Yes -->
<g id="edge12" class="edge">
<title>&gt;3 cm&#45;&gt;Yes</title>
<path fill="none" stroke="black" d="M305.67,-692.64C305.93,-671.27 304.58,-634.16 294,-604.5 293.04,-601.8 291.83,-599.11 290.47,-596.48"/>
<polygon fill="black" stroke="black" points="293.6,-594.89 285.47,-588.09 287.58,-598.47 293.6,-594.89"/>
<text text-anchor="middle" x="326.06" y="-651.95" font-family="Times,serif" font-size="14.00">(100%)</text>
</g>
<!-- WHO Grade I -->
<g id="node14" class="node">
<title>WHO Grade I</title>
<polygon fill="none" stroke="black" points="252,-321 158,-321 158,-285 252,-285 252,-321"/>
<text text-anchor="middle" x="205" y="-297.95" font-family="Times,serif" font-size="14.00">WHO Grade I</text>
</g>
<!-- Pathology Grade&#45;&gt;WHO Grade I -->
<g id="edge14" class="edge">
<title>Pathology Grade&#45;&gt;WHO Grade I</title>
<path fill="none" stroke="black" d="M205,-373.41C205,-361.76 205,-346.05 205,-332.52"/>
<polygon fill="black" stroke="black" points="208.5,-332.86 205,-322.86 201.5,-332.86 208.5,-332.86"/>
<text text-anchor="middle" x="222.25" y="-342.2" font-family="Times,serif" font-size="14.00">(38%)</text>
</g>
<!-- WHO Grade II/III -->
<g id="node15" class="node">
<title>WHO Grade II/III</title>
<polygon fill="none" stroke="black" points="139.88,-321 24.12,-321 24.12,-285 139.88,-285 139.88,-321"/>
<text text-anchor="middle" x="82" y="-297.95" font-family="Times,serif" font-size="14.00">WHO Grade II/III</text>
</g>
<!-- Pathology Grade&#45;&gt;WHO Grade II/III -->
<g id="edge15" class="edge">
<title>Pathology Grade&#45;&gt;WHO Grade II/III</title>
<path fill="none" stroke="black" d="M180.4,-373.2C161.89,-360.18 136.28,-342.17 115.83,-327.79"/>
<polygon fill="black" stroke="black" points="117.98,-325.03 107.79,-322.14 113.96,-330.75 117.98,-325.03"/>
<text text-anchor="middle" x="171.77" y="-342.2" font-family="Times,serif" font-size="14.00">(61%)</text>
</g>
<!-- WHO Grade I&#45;&gt;Extent of Resection -->
<g id="edge16" class="edge">
<title>WHO Grade I&#45;&gt;Extent of Resection</title>
<path fill="none" stroke="black" d="M205,-284.91C205,-273.26 205,-257.55 205,-244.02"/>
<polygon fill="black" stroke="black" points="208.5,-244.36 205,-234.36 201.5,-244.36 208.5,-244.36"/>
<text text-anchor="middle" x="225.62" y="-253.7" font-family="Times,serif" font-size="14.00">(100%)</text>
</g>
<!-- Fractionated Radiotherapy -->
<g id="node16" class="node">
<title>Fractionated Radiotherapy</title>
<polygon fill="none" stroke="black" points="160,-178.5 0,-178.5 0,-142.5 160,-142.5 160,-178.5"/>
<text text-anchor="middle" x="80" y="-155.45" font-family="Times,serif" font-size="14.00">Fractionated Radiotherapy</text>
</g>
<!-- WHO Grade II/III&#45;&gt;Fractionated Radiotherapy -->
<g id="edge17" class="edge">
<title>WHO Grade II/III&#45;&gt;Fractionated Radiotherapy</title>
<path fill="none" stroke="black" d="M81.75,-284.77C81.42,-261.18 80.81,-218.5 80.41,-190.08"/>
<polygon fill="black" stroke="black" points="83.91,-190.33 80.27,-180.38 76.91,-190.43 83.91,-190.33"/>
<text text-anchor="middle" x="102.12" y="-253.7" font-family="Times,serif" font-size="14.00">(100%)</text>
</g>
<!-- Fractionated Radiotherapy&#45;&gt;Complete -->
<g id="edge19" class="edge">
<title>Fractionated Radiotherapy&#45;&gt;Complete</title>
<path fill="none" stroke="black" d="M86.01,-142.08C91.55,-127.2 100.59,-105.56 111.75,-88.5 122.13,-72.64 136.12,-56.86 148.3,-44.35"/>
<polygon fill="black" stroke="black" points="150.72,-46.88 155.31,-37.33 145.76,-41.94 150.72,-46.88"/>
<text text-anchor="middle" x="132.38" y="-101.45" font-family="Times,serif" font-size="14.00">(100%)</text>
</g>
</g>
</svg>
